PathFileType	4	(X/Y/Z)	/Users/itak/Documents/Research/Walk-IL/dataset/trc/00471_00167.trc
DataRate	CameraRate	NumFrames	NumMarkers	Units	OrigDataRate	OrigDataStartFrame	OrigNumFrames
100.000000	100.000000	4	53	mm	100.000000	313	626
Frame#	Time	RPSI			LPSI			L3			STRN			T10			C7			CLAV			RBAK			LBAK			LSHO			LUPA			LAEL			LAOL			LWTS			LWPS			LFRA			LIFD			LHPS			LHTS			RSHO			RUPA			RAEL			RAOL			RWTS			RWPS			RFRA			RIFD			RHTS			RHPS			RBHD			LFHD			RFHD			LBHD			LHIP			RHIP			RASI			LASI			LKNE			LTHI			LANK			LTIP			LTOE			LMT1			LMT5			LHEE			RKNE			RTHI			RANK			RTIP			RTOE			RMT1			RMT5			RHEE			
		X1	Y1	Z1	X2	Y2	Z2	X3	Y3	Z3	X4	Y4	Z4	X5	Y5	Z5	X6	Y6	Z6	X7	Y7	Z7	X8	Y8	Z8	X9	Y9	Z9	X10	Y10	Z10	X11	Y11	Z11	X12	Y12	Z12	X13	Y13	Z13	X14	Y14	Z14	X15	Y15	Z15	X16	Y16	Z16	X17	Y17	Z17	X18	Y18	Z18	X19	Y19	Z19	X20	Y20	Z20	X21	Y21	Z21	X22	Y22	Z22	X23	Y23	Z23	X24	Y24	Z24	X25	Y25	Z25	X26	Y26	Z26	X27	Y27	Z27	X28	Y28	Z28	X29	Y29	Z29	X30	Y30	Z30	X31	Y31	Z31	X32	Y32	Z32	X33	Y33	Z33	X34	Y34	Z34	X35	Y35	Z35	X36	Y36	Z36	X37	Y37	Z37	X38	Y38	Z38	X39	Y39	Z39	X40	Y40	Z40	X41	Y41	Z41	X42	Y42	Z42	X43	Y43	Z43	X44	Y44	Z44	X45	Y45	Z45	X46	Y46	Z46	X47	Y47	Z47	X48	Y48	Z48	X49	Y49	Z49	X50	Y50	Z50	X51	Y51	Z51	X52	Y52	Z52	X53	Y53	Z53	

314	3.13	407.4226989746094	951.9999389648438	-508.5491638183594	512.2249755859375	974.200439453125	-412.5926818847656	414.5164794921875	1049.807250976562	-465.9464416503906	243.5825653076172	1233.897094726562	-237.846923828125	400.793701171875	1169.849731445312	-482.8254699707031	331.0363159179688	1434.553466796875	-439.4443359375	256.7100219726562	1347.629516601562	-268.9857788085938	289.3937683105469	1307.930541992188	-535.5947265625	435.6587524414062	1394.551025390625	-418.4225158691406	451.0884399414062	1422.573486328125	-293.02783203125	561.6392822265625	1325.19189453125	-254.5667877197266	626.1350708007812	1122.98193359375	-208.0468902587891	612.3438720703125	1096.479614257812	-306.8634643554688	561.8401489257812	927.9625854492188	-132.862060546875	635.1016235351562	915.601318359375	-141.8992004394531	632.0581665039062	1038.981201171875	-173.0257720947266	578.231689453125	785.0050659179688	-75.49454498291016	637.1533813476562	846.7811279296875	-111.7931213378906	568.294921875	857.9091186523438	-90.54124450683594	161.1734313964844	1393.988891601562	-458.6843566894531	106.6671905517578	1330.464965820312	-510.8521423339844	63.83459854125977	1038.5966796875	-518.6222534179688	119.5422515869141	1021.517883300781	-551.423583984375	87.22980499267578	852.3023071289062	-381.0167541503906	51.23701477050781	823.6007080078125	-456.5932922363281	56.77030563354492	980.0706176757812	-510.838623046875	88.83274078369141	698.587646484375	-356.3564147949219	80.11389923095703	758.0695190429688	-354.7425231933594	56.28298568725586	740.6529541015625	-427.10302734375	216.6294250488281	1611.420288085938	-439.20068359375	222.0050506591797	1652.703369140625	-236.7396087646484	133.9088287353516	1632.541259765625	-331.2758483886719	347.2657775878906	1643.71875	-322.9298400878906	512.35986328125	901.252197265625	-209.1690826416016	264.2689514160156	805.4091186523438	-502.2592163085938	219.8128051757812	851.6884765625	-390.9922790527344	390.2970581054688	914.2514038085938	-218.7463684082031	469.4486694335938	514.6851196289062	-66.63304138183594	448.1210327148438	664.8067016601562	-81.42263793945312	802.206787109375	359.7699279785156	-291.5547485351562	601.9392700195312	441.8790283203125	-128.9889221191406	707.4494018554688	184.6658935546875	-161.4115753173828	702.6118774414062	216.0869293212891	-236.3723449707031	773.0849609375	274.8069152832031	-171.9936981201172	771.1397094726562	359.1437377929688	-363.0872497558594	368.7545776367188	432.7328796386719	-405.2342529296875	262.45751953125	669.6403198242188	-458.6507568359375	576.3981323242188	63.08351516723633	-455.9477844238281	422.5960693359375	294.7313232421875	-407.7329406738281	483.0073547363281	40.44994354248047	-259.8421630859375	547.7586669921875	50.05500030517578	-289.0078735351562	476.9748229980469	41.48959350585938	-371.131591796875	651.9366455078125	83.82154083251953	-478.0037841796875	
315	3.14	416.7476806640625	950.4990844726562	-505.40087890625	518.423095703125	971.0745239257812	-405.5260620117188	422.8475952148438	1048.318237304688	-462.3125915527344	243.0164489746094	1231.758544921875	-240.5484466552734	409.6038208007812	1168.504760742188	-479.5511474609375	337.3644714355469	1432.937622070312	-438.3289794921875	257.2007446289062	1345.618408203125	-270.9883422851562	299.7872924804688	1306.311401367188	-536.3245849609375	441.330078125	1393.212280273438	-413.7232666015625	452.3184509277344	1420.7548828125	-287.6676635742188	561.75341796875	1323.089111328125	-246.4060516357422	626.1679077148438	1120.496826171875	-201.2397003173828	614.9697265625	1096.102294921875	-300.9786682128906	566.83056640625	920.9540405273438	-133.6417388916016	640.657470703125	911.54296875	-141.3851928710938	633.97216796875	1035.722900390625	-168.6539306640625	587.1149291992188	776.5798950195312	-81.32914733886719	644.5640869140625	841.6869506835938	-113.9101638793945	574.764404296875	849.4711303710938	-93.99221801757812	168.4935913085938	1391.76220703125	-464.1317443847656	116.1622467041016	1327.802734375	-518.0181274414062	72.27504730224609	1036.23046875	-525.1478271484375	129.2572784423828	1018.809326171875	-555.8079833984375	89.71270751953125	850.4533081054688	-386.20263671875	56.2132682800293	821.8272094726562	-462.8502502441406	64.58716583251953	977.782470703125	-517.3694458007812	88.30651092529297	696.9660034179688	-360.8275146484375	80.33730316162109	756.5432739257812	-359.785400390625	58.99570083618164	739.0374755859375	-432.8638000488281	222.0995025634766	1609.866333007812	-440.8669738769531	221.4303436279297	1650.176513671875	-238.1276397705078	136.1407318115234	1630.282470703125	-335.3336181640625	349.1546630859375	1641.846557617188	-320.6067199707031	509.5857238769531	897.2450561523438	-202.2467498779297	271.9863891601562	805.154052734375	-505.1553344726562	224.2563171386719	850.7133178710938	-395.3276672363281	388.3976440429688	911.6400756835938	-216.6937408447266	453.8700866699219	510.1645812988281	-63.7535514831543	434.8717346191406	660.6199951171875	-79.17546081542969	798.4135131835938	350.586181640625	-266.5861206054688	589.14111328125	435.5390930175781	-117.4417495727539	692.5950317382812	177.4064178466797	-142.4659271240234	693.6215209960938	208.3103332519531	-217.9040679931641	760.1431884765625	266.6060791015625	-149.0603485107422	772.100830078125	350.0417785644531	-339.9487915039062	372.790283203125	431.4383544921875	-408.0951232910156	268.3255920410156	669.0166015625	-462.0443725585938	577.9663696289062	60.52183532714844	-456.1125183105469	425.7559204101562	293.0362243652344	-409.6484985351562	482.7305908203125	40.5135612487793	-260.2205810546875	547.9069213867188	49.79922866821289	-289.2803955078125	477.3671569824219	41.57610321044922	-371.593994140625	654.058837890625	79.48893737792969	-477.8694458007812	
316	3.15	425.2855529785156	948.9288330078125	-502.339111328125	523.9959106445312	967.8786010742188	-398.98583984375	430.5847778320312	1046.758666992188	-458.6959228515625	242.6785888671875	1229.792358398438	-243.2419586181641	418.0160217285156	1167.205932617188	-476.1708068847656	343.47998046875	1431.358764648438	-437.1117553710938	257.7545166015625	1343.767211914062	-273.0405883789062	309.9412841796875	1304.672241210938	-536.7285766601562	446.7060546875	1391.98388671875	-409.0284118652344	453.3114013671875	1419.100952148438	-282.4688415527344	561.4361572265625	1321.042236328125	-238.3375244140625	625.4845581054688	1117.98046875	-194.5435180664062	616.7477416992188	1095.724365234375	-295.0823364257812	571.6461791992188	914.1791381835938	-134.5512237548828	645.9111328125	907.781494140625	-140.9301147460938	635.3171997070312	1032.58056640625	-164.3742065429688	596.380859375	768.5133666992188	-87.76898956298828	651.9217529296875	836.95947265625	-116.3613052368164	581.3926391601562	841.1943969726562	-97.82981872558594	175.874755859375	1389.631591796875	-469.3898620605469	125.768196105957	1325.2646484375	-524.9094848632812	80.88975524902344	1033.9658203125	-531.59375	139.0447235107422	1016.23828125	-559.9517822265625	92.13503265380859	848.6572265625	-391.6010131835938	61.41292953491211	820.1708984375	-469.3459167480469	72.61908721923828	975.59765625	-523.8992919921875	87.64300537109375	695.3773193359375	-365.8291931152344	80.45068359375	755.0499267578125	-365.2557067871094	61.82716369628906	737.5043334960938	-439.026611328125	227.3780822753906	1608.4033203125	-442.4249267578125	220.7054290771484	1647.66748046875	-239.5909118652344	138.2727355957031	1628.024658203125	-339.33984375	350.7728576660156	1640.083374023438	-318.3353576660156	506.801513671875	893.494873046875	-196.0912170410156	279.0765686035156	804.850341796875	-507.5371398925781	228.4618988037109	849.8563232421875	-399.0607299804688	386.6101989746094	909.3486328125	-214.884033203125	438.4422302246094	506.3003540039062	-61.6385498046875	422.0435791015625	657.05908203125	-77.73162841796875	792.171875	339.9609985351562	-241.9701843261719	575.4956665039062	429.2199096679688	-106.5678558349609	675.33447265625	169.6893920898438	-123.8530120849609	682.1353759765625	199.8011932373047	-199.4478302001953	744.8809814453125	257.6136779785156	-126.7058868408203	770.5568237304688	339.33251953125	-316.7843933105469	376.9350891113281	430.29296875	-410.7299499511719	273.8487548828125	668.4317626953125	-464.857666015625	579.3839721679688	58.05047988891602	-456.2644348144531	428.9556579589844	291.502685546875	-411.3895874023438	482.5616760253906	40.58265686035156	-260.5264282226562	548.1404418945312	49.53292465209961	-289.5293273925781	477.7559509277344	41.68558502197266	-371.9661560058594	655.9918212890625	75.18180084228516	-477.7786865234375	
317	3.16	433.0706787109375	947.33837890625	-499.408935546875	528.9881591796875	964.7044067382812	-392.9847717285156	437.724365234375	1045.135864257812	-455.1727600097656	242.5769195556641	1227.996948242188	-245.8997497558594	425.9912719726562	1165.970947265625	-472.7172546386719	349.3822937011719	1429.83837890625	-435.8117065429688	258.3967895507812	1342.069580078125	-275.1093444824219	319.8042602539062	1303.0546875	-536.8206787109375	451.7791748046875	1390.853759765625	-404.3444519042969	454.0882568359375	1417.608032226562	-277.4423522949219	560.7061767578125	1319.057250976562	-230.3954315185547	624.0988159179688	1115.462890625	-187.9882049560547	617.7221069335938	1095.349975585938	-289.2077331542969	576.2133178710938	907.7140502929688	-135.5003509521484	650.7888793945312	904.37646484375	-140.4599914550781	636.0571899414062	1029.604125976562	-160.1741027832031	605.97607421875	760.9808349609375	-94.77799987792969	659.1571655273438	832.7007446289062	-119.0734558105469	588.1359252929688	833.1994018554688	-102.0144653320312	183.2768707275391	1387.620239257812	-474.3948974609375	135.4237518310547	1322.89013671875	-531.4692993164062	89.66865539550781	1031.8359375	-537.9502563476562	148.8837738037109	1013.849670410156	-563.8732299804688	94.50612640380859	846.9635620117188	-397.2097473144531	66.88249969482422	818.64501953125	-476.0510559082031	80.86727142333984	973.5409545898438	-530.41845703125	86.94382476806641	693.85888671875	-371.3487243652344	80.51921081542969	753.6302490234375	-371.1493835449219	64.86617279052734	736.0719604492188	-445.5769653320312	232.4549102783203	1607.02734375	-443.877197265625	219.8319549560547	1645.171264648438	-241.1385498046875	140.3003387451172	1625.764892578125	-343.2951049804688	352.1289978027344	1638.4345703125	-316.128173828125	504.0641784667969	890.0597534179688	-190.6416778564453	285.6043701171875	804.4793701171875	-509.4725341796875	232.4118347167969	849.0875244140625	-402.2310485839844	384.9492797851562	907.41943359375	-213.3012847900391	423.2925109863281	503.1515808105469	-60.17146682739258	409.770751953125	654.1766357421875	-76.96959686279297	783.4583129882812	327.9653625488281	-217.9339904785156	561.099609375	422.9977416992188	-96.38235473632812	655.6836547851562	161.6564331054688	-105.7689971923828	668.0670166015625	190.6834869384766	-181.1918487548828	727.3287353515625	247.9604187011719	-105.1043395996094	766.4129638671875	327.068603515625	-293.8444213867188	381.22021484375	429.269775390625	-413.1531372070312	279.0758056640625	667.8497924804688	-467.1802673339844	580.74609375	55.66947937011719	-456.3763732910156	432.245849609375	290.1122131347656	-412.9873352050781	482.470947265625	40.67192459106445	-260.7926330566406	548.4473876953125	49.25412750244141	-289.7372741699219	478.1972961425781	41.80978775024414	-372.2832641601562	657.83251953125	70.88970947265625	-477.6495666503906	
